<?xml version="1.0" encoding="utf-8"?>
<!-- Generator: Adobe Illustrator 18.1.0, SVG Export Plug-In . SVG Version: 6.00 Build 0)  -->
<svg version="1.1" id="图层_1" xmlns="http://www.w3.org/2000/svg" xmlns:xlink="http://www.w3.org/1999/xlink" x="0px" y="0px"
	 viewBox="34 -34 768 768" enable-background="new 34 -34 768 768" xml:space="preserve">
<path d="M418,606.5c70,0,130.3-25.3,180.8-75.8S674.5,420,674.5,350s-25.3-130.3-75.8-180.8S488,93.5,418,93.5
	s-130.3,25.3-180.8,75.8S161.5,280,161.5,350s25.3,130.3,75.8,180.8S348,606.5,418,606.5z M418,30.5c88,0,163.3,31.3,225.8,93.8
	S737.5,262,737.5,350s-31.3,163.3-93.8,225.8S506,669.5,418,669.5s-163.3-31.3-225.8-93.8S98.5,438,98.5,350s31.3-163.3,93.8-225.8
	S330,30.5,418,30.5z M257.5,318.5h321v63h-321V318.5z"/>
</svg>
