<?xml version="1.0" encoding="utf-8"?>
<!-- Generator: Adobe Illustrator 18.1.0, SVG Export Plug-In . SVG Version: 6.00 Build 0)  -->
<svg version="1.1" id="图层_1" xmlns="http://www.w3.org/2000/svg" xmlns:xlink="http://www.w3.org/1999/xlink" x="0px" y="0px"
	 viewBox="34 -34 768 768" enable-background="new 34 -34 768 768" xml:space="preserve">
<path d="M578.5,542c17,0,31.8,6.5,44.3,19.5s18.8,28,18.8,45s-6.3,31.8-18.8,44.3s-27.3,18.8-44.3,18.8s-32-6.3-45-18.8
	S514,623.5,514,606.5s6.5-32,19.5-45S561.5,542,578.5,542z M65.5,30.5h105l30,63h474c9,0,16.5,3.3,22.5,9.8s9,14.3,9,23.3
	c0,5-1.5,10-4.5,15l-114,207c-12,22-30.5,33-55.5,33H293.5L265,434l-1.5,4.5c0,5,2.5,7.5,7.5,7.5h370.5v64.5h-384
	c-17,0-31.8-6.5-44.3-19.5s-18.8-28-18.8-45c0-10,2.5-20,7.5-30l43.5-79.5L130,93.5H65.5V30.5z M257.5,542c17,0,32,6.5,45,19.5
	s19.5,28,19.5,45s-6.5,31.8-19.5,44.3s-28,18.8-45,18.8s-31.8-6.3-44.3-18.8s-18.8-27.3-18.8-44.3s6.3-32,18.8-45
	S240.5,542,257.5,542z"/>
</svg>
