<?xml version="1.0" encoding="utf-8"?>
<!-- Generator: Adobe Illustrator 18.1.0, SVG Export Plug-In . SVG Version: 6.00 Build 0)  -->
<svg version="1.1" id="图层_1" xmlns="http://www.w3.org/2000/svg" xmlns:xlink="http://www.w3.org/1999/xlink" x="0px" y="0px"
	 viewBox="34 -34 768 768" enable-background="new 34 -34 768 768" xml:space="preserve">
<path d="M641.5,62h129v384h-129V62z M514,62c17,0,32,6.5,45,19.5s19.5,28,19.5,45V446c0,17-6.5,32-19.5,45L349,702.5L314.5,668
	c-9-9-13.5-20-13.5-33v-10.5l31.5-147H130c-17,0-32-6.3-45-18.8s-19.5-27.3-19.5-44.3l1.5-3h-1.5V350c0-8,1.5-16,4.5-24l97.5-225
	c10-26,29.5-39,58.5-39H514z"/>
</svg>
