<?xml version="1.0" encoding="utf-8"?>
<!-- Generator: Adobe Illustrator 18.1.0, SVG Export Plug-In . SVG Version: 6.00 Build 0)  -->
<svg version="1.1" id="图层_1" xmlns="http://www.w3.org/2000/svg" xmlns:xlink="http://www.w3.org/1999/xlink" x="0px" y="0px"
	 viewBox="34 -34 768 768" enable-background="new 34 -34 768 768" xml:space="preserve">
<path d="M770.5,285.5l-1.5,3h1.5V350c0,8-1.5,16-4.5,24l-97.5,225c-10,26-29.5,39-58.5,39H322c-17,0-32-6.5-45-19.5
	s-19.5-28-19.5-45V254c0-17,6.5-32,19.5-45L487-2.5L521.5,32c9,9,13.5,20,13.5,33v10.5l-31.5,147H706c17,0,32,6.3,45,18.8
	S770.5,268.5,770.5,285.5z M65.5,638V254h129v384H65.5z"/>
</svg>
